<svg xmlns="http://www.w3.org/2000/svg" width="1200" height="100" viewBox="0 0 1200 100" fill="none">
  <defs><clipPath id="cpf"><rect width="1200" height="100"/></clipPath></defs>
  <g clip-path="url(#cpf)"><path d="M0,48.0 L0.0,48.0 L26.7,55.0 L53.3,60.1 L80.0,62.0 L106.7,60.1 L133.3,55.0 L160.0,48.0 L186.7,41.0 L213.3,35.9 L240.0,34.0 L266.7,35.9 L293.3,41.0 L320.0,48.0 L346.7,55.0 L373.3,60.1 L400.0,62.0 L426.7,60.1 L453.3,55.0 L480.0,48.0 L506.7,41.0 L533.3,35.9 L560.0,34.0 L586.7,35.9 L613.3,41.0 L640.0,48.0 L666.7,55.0 L693.3,60.1 L720.0,62.0 L746.7,60.1 L773.3,55.0 L800.0,48.0 L826.7,41.0 L853.3,35.9 L880.0,34.0 L906.7,35.9 L933.3,41.0 L960.0,48.0 L986.7,55.0 L1013.3,60.1 L1040.0,62.0 L1066.7,60.1 L1093.3,55.0 L1120.0,48.0 L1146.7,41.0 L1173.3,35.9 L1200.0,34.0 L1226.7,35.9 L1253.3,41.0 L1280.0,48.0 L1306.7,55.0 L1333.3,60.1 L1360.0,62.0 L1386.7,60.1 L1413.3,55.0 L1440.0,48.0 L1466.7,41.0 L1493.3,35.9 L1520.0,34.0 L1546.7,35.9 L1573.3,41.0 L1600.0,48.0 L1626.7,55.0 L1653.3,60.1 L1680.0,62.0 L1706.7,60.1 L1733.3,55.0 L1760.0,48.0 L1786.7,41.0 L1813.3,35.9 L1840.0,34.0 L1866.7,35.9 L1893.3,41.0 L1920.0,48.0 L1946.7,55.0 L1973.3,60.1 L2000.0,62.0 L2026.7,60.1 L2053.3,55.0 L2080.0,48.0 L2106.7,41.0 L2133.3,35.9 L2160.0,34.0 L2186.7,35.9 L2213.3,41.0 L2240.0,48.0 L2266.7,55.0 L2293.3,60.1 L2320.0,62.0 L2346.7,60.1 L2373.3,55.0 L2400.0,48.0 L2400.0,400 L0,400 Z" fill="#0e7490" opacity="0.4"><animateTransform attributeName="transform" type="translate" from="0 0" to="-1200 0" dur="26s" repeatCount="indefinite"/></path>
  <path d="M0,58.0 L0.0,74.0 L33.3,76.0 L66.7,73.1 L100.0,66.2 L133.3,57.0 L166.7,48.2 L200.0,42.0 L233.3,40.0 L266.7,42.9 L300.0,49.8 L333.3,59.0 L366.7,67.8 L400.0,74.0 L433.3,76.0 L466.7,73.1 L500.0,66.2 L533.3,57.0 L566.7,48.2 L600.0,42.0 L633.3,40.0 L666.7,42.9 L700.0,49.8 L733.3,59.0 L766.7,67.8 L800.0,74.0 L833.3,76.0 L866.7,73.1 L900.0,66.2 L933.3,57.0 L966.7,48.2 L1000.0,42.0 L1033.3,40.0 L1066.7,42.9 L1100.0,49.8 L1133.3,59.0 L1166.7,67.8 L1200.0,74.0 L1233.3,76.0 L1266.7,73.1 L1300.0,66.2 L1333.3,57.0 L1366.7,48.2 L1400.0,42.0 L1433.3,40.0 L1466.7,42.9 L1500.0,49.8 L1533.3,59.0 L1566.7,67.8 L1600.0,74.0 L1633.3,76.0 L1666.7,73.1 L1700.0,66.2 L1733.3,57.0 L1766.7,48.2 L1800.0,42.0 L1833.3,40.0 L1866.7,42.9 L1900.0,49.8 L1933.3,59.0 L1966.7,67.8 L2000.0,74.0 L2033.3,76.0 L2066.7,73.1 L2100.0,66.2 L2133.3,57.0 L2166.7,48.2 L2200.0,42.0 L2233.3,40.0 L2266.7,42.9 L2300.0,49.8 L2333.3,59.0 L2366.7,67.8 L2400.0,74.0 L2433.3,76.0 L2400.0,400 L0,400 Z" fill="#14b8a6" opacity="0.36"><animateTransform attributeName="transform" type="translate" from="0 0" to="-1200 0" dur="20s" repeatCount="indefinite"/></path>
  <path d="M0,66.0 L0.0,75.7 L21.7,70.9 L43.3,64.7 L65.0,58.9 L86.7,55.0 L108.3,54.1 L130.0,56.3 L151.7,61.1 L173.3,67.3 L195.0,73.1 L216.7,77.0 L238.3,77.9 L260.0,75.7 L281.7,70.9 L303.3,64.7 L325.0,58.9 L346.7,55.0 L368.3,54.1 L390.0,56.3 L411.7,61.1 L433.3,67.3 L455.0,73.1 L476.7,77.0 L498.3,77.9 L520.0,75.7 L541.7,70.9 L563.3,64.7 L585.0,58.9 L606.7,55.0 L628.3,54.1 L650.0,56.3 L671.7,61.1 L693.3,67.3 L715.0,73.1 L736.7,77.0 L758.3,77.9 L780.0,75.7 L801.7,70.9 L823.3,64.7 L845.0,58.9 L866.7,55.0 L888.3,54.1 L910.0,56.3 L931.7,61.1 L953.3,67.3 L975.0,73.1 L996.7,77.0 L1018.3,77.9 L1040.0,75.7 L1061.7,70.9 L1083.3,64.7 L1105.0,58.9 L1126.7,55.0 L1148.3,54.1 L1170.0,56.3 L1191.7,61.1 L1213.3,67.3 L1235.0,73.1 L1256.7,77.0 L1278.3,77.9 L1300.0,75.7 L1321.7,70.9 L1343.3,64.7 L1365.0,58.9 L1386.7,55.0 L1408.3,54.1 L1430.0,56.3 L1451.7,61.1 L1473.3,67.3 L1495.0,73.1 L1516.7,77.0 L1538.3,77.9 L1560.0,75.7 L1581.7,70.9 L1603.3,64.7 L1625.0,58.9 L1646.7,55.0 L1668.3,54.1 L1690.0,56.3 L1711.7,61.1 L1733.3,67.3 L1755.0,73.1 L1776.7,77.0 L1798.3,77.9 L1820.0,75.7 L1841.7,70.9 L1863.3,64.7 L1885.0,58.9 L1906.7,55.0 L1928.3,54.1 L1950.0,56.3 L1971.7,61.1 L1993.3,67.3 L2015.0,73.1 L2036.7,77.0 L2058.3,77.9 L2080.0,75.7 L2101.7,70.9 L2123.3,64.7 L2145.0,58.9 L2166.7,55.0 L2188.3,54.1 L2210.0,56.3 L2231.7,61.1 L2253.3,67.3 L2275.0,73.1 L2296.7,77.0 L2318.3,77.9 L2340.0,75.7 L2361.7,70.9 L2383.3,64.7 L2405.0,58.9 L2400.0,400 L0,400 Z" fill="#22d3ee" opacity="0.28"><animateTransform attributeName="transform" type="translate" from="0 0" to="-1200 0" dur="32s" repeatCount="indefinite"/></path>
  </g>
</svg>